<svg xmlns="http://www.w3.org/2000/svg" xmlns:xlink="http://www.w3.org/1999/xlink" preserveAspectRatio="xMidYMid" width="18.03" height="18" viewBox="0 0 18.03 18">
  <defs>
    <style>
      .cls-1 {
        fill: #000;
        filter: url(#color-overlay-1);
        fill-rule: evenodd;
      }
    </style>

    <filter id="color-overlay-1" filterUnits="userSpaceOnUse">
      <feFlood flood-color="#7a909d"/>
      <feComposite operator="in" in2="SourceGraphic"/>
      <feBlend in2="SourceGraphic" result="solidFill"/>
    </filter>
  </defs>
  <path d="M13.518,17.973 C10.535,18.006 7.551,18.002 4.568,17.978 C1.916,17.956 0.116,16.181 0.045,13.522 C0.003,12.000 0.037,10.475 0.039,8.952 C0.040,7.469 0.015,5.985 0.046,4.502 C0.099,1.909 1.826,0.110 4.446,0.051 C7.509,-0.018 10.576,-0.023 13.638,0.052 C16.214,0.115 17.985,1.996 18.006,4.560 C18.029,7.526 18.028,10.493 18.007,13.460 C17.989,16.066 16.131,17.944 13.518,17.973 ZM16.650,4.507 C16.622,2.576 15.374,1.402 13.419,1.389 C10.479,1.369 7.539,1.368 4.599,1.389 C2.619,1.403 1.356,2.655 1.341,4.624 C1.318,7.547 1.315,10.471 1.339,13.394 C1.356,15.383 2.590,16.593 4.595,16.624 C6.085,16.648 7.576,16.629 9.066,16.630 C9.158,16.630 9.250,16.629 9.342,16.629 C9.342,14.517 9.342,12.482 9.342,10.447 C8.918,10.401 8.573,10.364 8.217,10.325 C8.217,9.504 8.217,8.737 8.217,7.951 C8.638,7.923 8.985,7.900 9.359,7.875 C9.549,6.349 9.228,4.564 10.526,3.712 C11.643,2.979 12.791,3.185 13.927,3.606 C13.927,4.379 13.927,5.044 13.927,5.707 C11.699,5.683 11.574,5.817 11.912,7.952 C12.380,7.952 12.866,7.952 13.374,7.952 C13.374,8.806 13.374,9.547 13.374,10.334 C12.837,10.376 12.350,10.415 11.817,10.456 C11.817,12.508 11.817,14.497 11.817,16.627 C12.350,16.627 12.883,16.633 13.416,16.626 C15.380,16.598 16.622,15.444 16.650,13.518 C16.695,10.515 16.695,7.510 16.650,4.507 Z" class="cls-1"/>
</svg>
