<svg xmlns="http://www.w3.org/2000/svg" xmlns:xlink="http://www.w3.org/1999/xlink" preserveAspectRatio="xMidYMid" width="99" height="100" viewBox="0 0 99 100">
  <defs>
    <style>
      .cls-1 {
        fill: #fff;
        filter: url(#color-overlay-1);
        fill-rule: evenodd;
      }
    </style>

    <filter id="color-overlay-1" filterUnits="userSpaceOnUse">
      <feFlood flood-color="#092333"/>
      <feComposite operator="in" in2="SourceGraphic"/>
      <feBlend in2="SourceGraphic" result="solidFill"/>
    </filter>
  </defs>
  <path d="M78.386,25.965 C79.527,26.257 80.664,26.800 81.620,27.496 C82.076,27.827 82.366,28.789 82.260,29.381 C82.174,29.866 81.392,30.226 80.830,30.720 C79.302,29.928 77.928,29.345 76.726,28.511 C76.387,28.275 76.274,27.093 76.552,26.720 C76.906,26.246 77.845,25.827 78.386,25.965 ZM56.606,13.611 C56.557,13.204 57.476,12.678 57.793,12.369 C64.132,13.511 69.182,16.223 72.926,21.095 C73.276,21.551 73.123,22.811 72.730,23.341 C72.132,24.148 71.185,23.925 70.535,23.120 C67.220,19.019 62.973,16.543 57.845,15.457 C57.296,15.340 56.688,14.289 56.606,13.611 ZM45.026,73.885 C41.192,75.131 37.268,72.736 36.778,68.706 C36.571,67.006 36.595,65.238 36.800,63.536 C37.187,60.328 39.894,58.129 43.131,58.163 C46.244,58.196 48.852,60.466 49.296,63.571 C49.418,64.424 49.438,65.292 49.505,66.153 C49.451,70.492 48.075,72.895 45.026,73.885 ZM46.161,64.406 C46.031,62.655 44.688,61.359 43.032,61.352 C41.310,61.345 39.969,62.713 39.918,64.575 C39.887,65.731 39.868,66.890 39.929,68.044 C40.015,69.684 41.353,70.964 42.943,71.016 C44.498,71.066 45.959,69.822 46.143,68.219 C46.221,67.535 46.156,66.834 46.156,66.140 C46.160,66.140 46.164,66.140 46.168,66.140 C46.168,65.562 46.204,64.981 46.161,64.406 ZM98.420,27.420 C95.641,32.342 92.821,37.240 90.019,42.149 C88.789,44.301 87.630,46.500 86.290,48.580 C85.900,49.184 84.930,49.889 84.334,49.802 C78.517,48.951 72.527,48.692 67.341,45.370 C66.762,44.999 66.204,44.591 65.612,44.241 C64.545,43.608 63.998,42.610 64.914,41.721 C65.376,41.274 66.705,41.348 67.448,41.659 C69.446,42.493 71.245,43.928 73.294,44.491 C76.539,45.385 79.920,45.790 83.256,46.318 C83.614,46.374 84.231,45.971 84.439,45.612 C87.810,39.768 91.137,33.897 94.465,28.028 C94.568,27.844 94.574,27.605 94.674,27.191 C93.049,26.890 91.508,26.526 89.946,26.328 C83.578,25.518 78.206,22.792 74.158,17.749 C69.932,12.486 64.343,10.175 57.870,9.555 C57.585,9.527 57.261,9.597 57.016,9.486 C54.275,8.235 52.979,9.690 51.753,11.980 C48.893,17.319 45.829,22.546 42.657,28.154 C44.943,28.569 47.040,28.968 49.143,29.329 C54.795,30.301 59.454,33.041 63.207,37.374 C63.928,38.205 64.438,39.157 63.322,40.079 C62.224,40.985 61.445,40.336 60.709,39.468 C57.234,35.368 52.817,33.061 47.519,32.400 C45.701,32.173 43.904,31.730 42.082,31.598 C41.449,31.552 40.467,31.964 40.162,32.479 C36.990,37.837 33.907,43.249 30.860,48.681 C30.612,49.124 30.703,49.849 30.827,50.399 C31.148,51.835 32.057,53.311 31.879,54.656 C30.814,62.731 34.637,69.477 37.442,76.500 C37.610,76.921 38.378,77.331 38.879,77.346 C41.634,77.429 44.395,77.451 47.147,77.333 C47.704,77.309 48.504,76.708 48.729,76.175 C50.546,71.870 52.270,67.525 53.972,63.172 C54.194,62.603 54.181,61.920 54.187,61.290 C54.210,58.741 54.177,56.192 54.203,53.643 C54.232,50.864 56.118,48.648 58.545,48.483 C61.203,48.302 63.460,49.936 63.557,52.824 C63.778,59.427 64.553,66.090 61.397,72.401 C57.833,79.530 56.202,87.291 54.839,95.099 C54.761,95.544 54.829,96.013 54.829,96.696 C57.243,96.696 59.517,96.696 62.192,96.696 C61.587,93.960 61.080,91.336 60.407,88.756 C60.031,87.312 59.412,85.928 58.843,84.541 C58.409,83.484 58.678,82.656 59.664,82.254 C60.691,81.834 61.496,82.377 61.840,83.379 C62.736,85.989 63.598,88.612 64.398,91.254 C64.715,92.299 65.006,93.405 65.005,94.483 C65.002,96.566 66.055,96.931 67.848,96.829 C70.252,96.692 72.671,96.792 75.083,96.798 C76.237,96.801 77.226,97.154 77.183,98.514 C77.143,99.796 76.189,99.985 75.095,99.984 C57.633,99.968 40.172,99.968 22.710,99.983 C21.604,99.984 20.673,99.761 20.694,98.459 C20.714,97.247 21.574,96.799 22.691,96.798 C24.989,96.795 27.288,96.749 29.584,96.812 C30.871,96.848 31.219,96.542 31.021,95.114 C29.826,86.521 27.267,78.351 23.768,70.459 C22.624,67.877 22.063,65.216 22.147,62.381 C22.224,59.777 22.142,57.168 22.170,54.561 C22.209,50.851 23.167,49.622 26.621,48.407 C27.175,48.212 27.651,47.540 27.977,46.978 C32.573,39.039 37.138,31.082 41.709,23.128 C45.848,15.926 49.985,8.723 54.125,1.521 C54.690,0.537 55.293,-0.546 56.641,0.324 C57.824,1.088 57.608,2.131 56.923,3.185 C56.423,3.952 55.994,4.767 55.422,5.754 C57.878,6.200 60.177,6.611 62.475,7.034 C67.684,7.994 72.184,10.408 75.530,14.494 C79.746,19.642 84.923,22.648 91.517,23.249 C93.337,23.415 95.143,23.783 96.941,24.134 C99.092,24.555 99.516,25.479 98.420,27.420 ZM28.563,53.679 C28.086,53.003 27.689,51.870 27.102,51.757 C25.944,51.536 25.447,52.581 25.427,53.674 C25.308,60.198 24.960,66.704 28.209,72.799 C29.797,75.778 31.037,79.028 31.897,82.299 C33.025,86.589 33.655,91.014 34.422,95.395 C34.614,96.492 35.107,96.831 36.147,96.809 C38.442,96.760 40.740,96.794 43.037,96.794 C45.277,96.794 47.517,96.751 49.755,96.812 C50.951,96.845 51.474,96.423 51.684,95.185 C52.958,87.673 54.039,80.053 57.690,73.255 C61.083,66.935 60.617,60.200 60.490,53.462 C60.479,52.857 59.668,52.266 59.229,51.669 C58.636,52.181 57.921,52.607 57.495,53.234 C57.212,53.650 57.302,54.352 57.298,54.927 C57.281,57.417 57.318,59.908 57.272,62.398 C57.259,63.132 57.154,63.909 56.889,64.586 C54.998,69.421 53.020,74.222 51.153,79.066 C50.676,80.305 49.907,80.754 48.682,80.749 C44.892,80.733 41.102,80.722 37.312,80.755 C36.118,80.766 35.368,80.285 34.945,79.161 C34.336,77.542 33.742,75.911 33.023,74.340 C30.045,67.835 27.558,61.233 28.566,53.850 C28.573,53.793 28.590,53.718 28.563,53.679 ZM23.786,77.454 C24.800,77.584 25.656,78.164 25.348,79.273 C25.165,79.935 24.373,80.425 24.118,80.705 C20.933,80.652 18.139,78.581 17.720,75.901 C17.387,73.765 17.552,71.533 17.666,69.352 C17.701,68.674 18.141,67.817 18.673,67.421 C19.195,67.033 20.196,66.849 20.747,67.104 C21.150,67.290 21.363,68.345 21.317,68.987 C21.190,70.789 20.697,72.578 20.702,74.371 C20.706,76.236 21.944,77.219 23.786,77.454 ZM17.833,82.242 C18.339,83.670 19.080,84.054 20.467,83.969 C22.241,83.859 24.026,83.953 25.807,83.939 C26.905,83.931 27.753,84.438 27.525,85.537 C27.398,86.151 26.497,87.013 25.903,87.048 C23.156,87.210 20.390,87.199 17.640,87.063 C17.016,87.033 16.116,86.390 15.873,85.805 C13.726,80.639 11.681,75.429 9.657,70.212 C9.416,69.591 9.422,68.850 9.415,68.163 C9.385,65.441 9.413,62.718 9.385,59.996 C9.374,58.960 8.958,57.989 7.795,58.274 C7.176,58.426 6.310,59.321 6.291,59.906 C6.161,63.782 6.207,67.666 6.260,71.546 C6.268,72.153 6.560,72.771 6.790,73.358 C8.617,78.032 10.629,82.642 12.238,87.391 C13.231,90.321 13.617,93.459 14.342,96.813 C15.007,96.813 15.773,96.612 16.336,96.867 C16.948,97.144 17.742,97.824 17.772,98.365 C17.799,98.875 16.942,99.888 16.457,99.899 C11.406,100.013 6.350,100.012 1.298,99.898 C0.822,99.887 -0.098,98.755 0.008,98.379 C0.184,97.755 0.999,96.919 1.593,96.878 C4.051,96.710 6.527,96.806 8.997,96.805 C9.622,96.804 10.247,96.805 10.877,96.805 C10.325,91.325 8.599,86.299 6.346,81.505 C3.700,75.872 2.474,70.075 3.031,63.871 C3.150,62.549 3.031,61.207 3.054,59.875 C3.101,57.180 4.928,55.145 7.566,54.822 C9.779,54.551 12.022,56.170 12.413,58.797 C12.767,61.179 12.727,63.642 12.650,66.062 C12.581,68.199 12.986,70.157 13.813,72.109 C15.232,75.453 16.620,78.818 17.833,82.242 ZM73.891,80.554 C70.893,79.958 68.847,77.678 68.617,74.560 C68.523,73.296 68.525,72.014 68.615,70.750 C68.872,67.159 71.852,64.385 75.208,64.538 C78.725,64.699 81.293,67.448 81.368,71.138 C81.379,71.658 81.369,72.178 81.369,72.698 C81.447,72.714 81.525,72.729 81.603,72.745 C81.314,74.195 81.251,75.741 80.690,77.073 C79.568,79.733 76.651,81.102 73.891,80.554 ZM78.206,72.672 C78.206,72.152 78.227,71.631 78.202,71.113 C78.110,69.211 76.849,67.895 75.101,67.857 C73.292,67.817 72.002,69.013 71.887,70.951 C71.815,72.159 71.806,73.382 71.912,74.586 C72.064,76.307 73.347,77.403 75.024,77.395 C76.664,77.388 77.987,76.232 78.176,74.576 C78.247,73.949 78.187,73.307 78.187,72.672 C78.194,72.672 78.200,72.672 78.206,72.672 ZM69.392,87.053 C68.117,87.101 67.346,86.594 66.889,85.411 C65.579,82.023 64.240,78.646 62.898,75.270 C62.455,74.155 62.498,73.124 63.710,72.657 C64.869,72.209 65.506,73.008 65.899,74.023 C67.024,76.928 68.184,79.820 69.260,82.743 C69.585,83.626 69.997,83.997 70.985,83.969 C73.683,83.890 76.385,83.910 79.084,83.960 C79.958,83.976 80.393,83.710 80.724,82.853 C82.408,78.492 84.223,74.182 85.863,69.806 C86.231,68.826 86.140,67.652 86.161,66.565 C86.202,64.422 86.139,62.277 86.181,60.134 C86.241,57.103 88.419,54.803 91.182,54.785 C93.771,54.768 95.775,57.133 95.788,60.234 C95.796,62.261 95.766,64.290 95.798,66.317 C95.814,67.395 95.462,68.203 94.320,68.252 C93.091,68.305 92.623,67.500 92.627,66.340 C92.633,64.312 92.636,62.285 92.621,60.257 C92.613,59.194 92.393,58.245 91.068,58.199 C89.716,58.151 89.319,59.122 89.472,60.158 C90.687,68.406 87.243,75.526 84.187,82.741 C82.082,87.709 83.461,86.971 77.836,87.034 C76.917,87.044 75.998,87.035 75.078,87.035 C73.183,87.035 71.285,86.983 69.392,87.053 ZM82.320,96.799 C83.054,96.829 83.789,96.805 84.754,96.805 C85.340,88.459 89.109,81.241 91.850,73.688 C92.121,72.939 92.259,72.134 92.394,71.344 C92.586,70.222 93.083,69.491 94.333,69.676 C95.537,69.854 95.754,70.792 95.625,71.752 C95.481,72.828 95.226,73.912 94.846,74.927 C93.554,78.380 92.062,81.761 90.881,85.250 C89.633,88.937 88.654,92.717 87.455,96.805 C90.950,96.805 93.870,96.822 96.789,96.796 C97.939,96.785 98.909,96.977 98.939,98.394 C98.969,99.862 97.943,99.999 96.820,99.997 C92.003,99.989 87.185,99.990 82.367,99.996 C81.262,99.998 80.206,99.917 80.212,98.434 C80.217,97.026 81.151,96.752 82.320,96.799 Z" class="cls-1"/>
</svg>
