<svg xmlns="http://www.w3.org/2000/svg" xmlns:xlink="http://www.w3.org/1999/xlink" preserveAspectRatio="xMidYMid" width="18" height="18" viewBox="0 0 18 18">
  <defs>
    <style>
      .cls-1 {
        fill: #061c29;
        filter: url(#color-overlay-1);
        fill-rule: evenodd;
      }
    </style>

    <filter id="color-overlay-1" filterUnits="userSpaceOnUse">
      <feFlood flood-color="#7a909d"/>
      <feComposite operator="in" in2="SourceGraphic"/>
      <feBlend in2="SourceGraphic" result="solidFill"/>
    </filter>
  </defs>
  <path d="M16.981,13.345 C16.963,15.998 15.136,17.944 12.634,17.974 C11.320,17.991 9.954,17.998 8.511,17.998 C7.209,17.998 5.844,17.991 4.400,17.979 C1.848,17.958 0.088,16.122 0.019,13.411 C-0.008,12.370 0.001,11.310 0.008,10.288 C0.010,9.842 0.014,9.396 0.014,8.951 C0.014,8.487 0.012,8.022 0.010,7.558 C0.005,6.594 0.001,5.595 0.021,4.613 C0.072,1.942 1.786,0.106 4.284,0.047 C7.202,-0.023 10.049,-0.023 12.747,0.047 C15.220,0.110 16.961,2.012 16.981,4.671 C17.001,7.460 17.001,10.377 16.981,13.345 ZM15.289,4.624 C15.265,2.880 14.237,1.832 12.538,1.820 C11.176,1.808 9.811,1.803 8.455,1.803 C7.102,1.803 5.757,1.808 4.431,1.820 C2.732,1.832 1.670,2.950 1.657,4.737 C1.635,7.769 1.635,10.562 1.655,13.277 C1.670,15.074 2.708,16.164 4.431,16.192 C5.363,16.206 6.314,16.204 7.236,16.199 C7.670,16.199 8.104,16.197 8.538,16.197 C8.950,16.197 9.361,16.199 9.773,16.199 C10.679,16.204 11.614,16.206 12.534,16.192 C14.234,16.166 15.265,15.123 15.289,13.397 C15.330,10.475 15.330,7.525 15.289,4.624 ZM10.929,12.862 C10.929,12.711 10.929,12.579 10.929,12.448 C10.929,11.609 10.931,10.770 10.927,9.931 C10.926,9.725 10.922,9.516 10.887,9.315 C10.790,8.755 10.534,8.513 10.057,8.502 C9.525,8.489 9.181,8.752 9.073,9.291 C9.023,9.540 9.010,9.801 9.008,10.058 C9.000,10.911 9.005,11.765 9.005,12.619 C9.005,12.698 9.005,12.778 9.005,12.866 C8.430,12.866 7.880,12.866 7.311,12.866 C7.311,10.935 7.311,9.005 7.311,7.065 C7.852,7.065 8.386,7.065 8.938,7.065 C8.938,7.317 8.938,7.556 8.938,7.752 C9.188,7.546 9.426,7.302 9.705,7.128 C10.321,6.743 11.675,6.820 12.198,7.599 C12.492,8.037 12.609,8.539 12.620,9.056 C12.645,10.306 12.635,11.558 12.639,12.809 C12.639,12.822 12.630,12.835 12.621,12.862 C12.069,12.862 11.513,12.862 10.929,12.862 ZM5.334,6.248 C4.777,6.244 4.351,5.781 4.358,5.187 C4.365,4.612 4.802,4.161 5.351,4.162 C5.903,4.163 6.347,4.634 6.342,5.215 C6.338,5.801 5.897,6.253 5.334,6.248 ZM6.198,12.859 C5.638,12.859 5.077,12.859 4.504,12.859 C4.504,10.933 4.504,9.009 4.504,7.062 C5.075,7.062 5.630,7.062 6.198,7.062 C6.198,8.997 6.198,10.920 6.198,12.859 Z" transform="translate(0.5)" class="cls-1"/>
</svg>
