<svg xmlns="http://www.w3.org/2000/svg" xmlns:xlink="http://www.w3.org/1999/xlink" preserveAspectRatio="xMidYMid" width="17.998" height="12.272" viewBox="0 0 22 15">
  <defs>
    <style>
      .cls-1 {
        fill: #081e2b;
        filter: url(#color-overlay-1);
        fill-rule: evenodd;
      }
    </style>

    <filter id="color-overlay-1" filterUnits="userSpaceOnUse">
      <feFlood flood-color="#7a909d"/>
      <feComposite operator="in" in2="SourceGraphic"/>
      <feBlend in2="SourceGraphic" result="solidFill"/>
    </filter>
  </defs>
  <path d="M20.187,1.968 C19.222,2.127 17.939,1.357 16.905,0.736 L16.869,0.713 C16.742,0.636 16.618,0.562 16.498,0.491 C15.537,-0.075 14.344,-0.157 13.229,0.264 C11.999,0.728 11.063,1.712 10.720,2.895 C10.606,3.291 10.574,3.675 10.545,4.079 C8.332,3.928 7.411,3.516 5.051,1.704 L4.293,1.120 L3.940,1.990 C3.740,2.484 2.794,5.072 3.915,7.461 C4.342,8.370 5.010,9.114 5.904,9.682 C4.680,9.957 3.430,9.771 2.153,9.534 L-0.000,9.134 L1.497,10.674 C4.162,13.423 7.506,14.998 10.669,14.998 C11.748,14.998 12.778,14.814 13.732,14.449 C16.932,13.231 18.755,10.245 18.735,6.256 C18.731,5.276 19.571,4.424 20.248,3.738 C20.478,3.503 20.698,3.279 20.872,3.066 L22.000,1.669 L20.187,1.968 ZM9.317,9.610 L7.882,9.106 C6.589,8.652 5.692,7.909 5.216,6.896 C4.611,5.607 4.804,4.167 4.986,3.393 C7.148,4.964 8.367,5.364 11.169,5.487 L11.842,5.517 L11.913,4.874 C11.936,4.659 11.950,4.451 11.964,4.249 C11.991,3.873 12.013,3.548 12.095,3.264 C12.315,2.503 12.949,1.843 13.751,1.541 C14.446,1.277 15.176,1.322 15.751,1.661 C15.880,1.735 16.012,1.816 16.149,1.898 C16.958,2.386 17.866,2.931 18.818,3.199 C18.047,4.016 17.301,4.992 17.307,6.263 C17.323,9.655 15.829,12.175 13.206,13.174 C10.514,14.201 7.093,13.433 4.152,11.179 C5.630,11.248 6.838,10.983 7.992,10.345 L9.317,9.610 Z" class="cls-1"/>
</svg>
