<svg xmlns="http://www.w3.org/2000/svg" xmlns:xlink="http://www.w3.org/1999/xlink" preserveAspectRatio="xMidYMid" width="18" height="18" viewBox="0 0 18 18">
  <defs>
    <style>
      .cls-1 {
        fill: #061c29;
        filter: url(#color-overlay-1);
        fill-rule: evenodd;
      }
    </style>

    <filter id="color-overlay-1" filterUnits="userSpaceOnUse">
      <feFlood flood-color="#7a909d"/>
      <feComposite operator="in" in2="SourceGraphic"/>
      <feBlend in2="SourceGraphic" result="solidFill"/>
    </filter>
  </defs>
  <path d="M16.981,13.345 C16.963,15.998 15.136,17.944 12.634,17.974 C11.320,17.991 9.954,17.998 8.511,17.998 C7.209,17.998 5.844,17.991 4.400,17.979 C1.848,17.958 0.088,16.122 0.019,13.411 C-0.008,12.370 0.001,11.310 0.008,10.288 C0.010,9.842 0.014,9.396 0.014,8.951 C0.014,8.487 0.012,8.022 0.010,7.558 C0.005,6.594 0.001,5.595 0.021,4.613 C0.072,1.942 1.786,0.106 4.284,0.047 C7.202,-0.023 10.049,-0.023 12.747,0.047 C15.220,0.110 16.961,2.012 16.981,4.671 C17.001,7.460 17.001,10.377 16.981,13.345 ZM15.289,4.624 C15.265,2.880 14.236,1.832 12.538,1.820 C11.176,1.808 9.811,1.803 8.455,1.803 C7.102,1.803 5.757,1.808 4.431,1.820 C2.732,1.832 1.670,2.950 1.657,4.737 C1.635,7.769 1.635,10.562 1.655,13.277 C1.670,15.074 2.708,16.164 4.431,16.192 C5.363,16.206 6.314,16.204 7.236,16.199 C7.670,16.199 8.104,16.197 8.538,16.197 C8.950,16.197 9.361,16.199 9.773,16.199 C10.679,16.204 11.614,16.206 12.534,16.192 C14.234,16.166 15.265,15.123 15.289,13.397 C15.330,10.475 15.330,7.525 15.289,4.624 ZM13.004,5.276 C12.482,5.276 12.059,4.831 12.059,4.281 C12.059,3.731 12.482,3.286 13.004,3.286 C13.526,3.286 13.949,3.731 13.949,4.281 C13.949,4.831 13.526,5.276 13.004,5.276 ZM8.518,13.402 L8.487,13.402 C7.347,13.402 6.280,12.926 5.481,12.062 C4.690,11.206 4.272,10.082 4.302,8.898 C4.364,6.498 6.206,4.618 8.494,4.618 L8.494,4.618 L8.533,4.618 C10.825,4.640 12.683,6.613 12.674,9.017 C12.666,11.417 10.801,13.384 8.518,13.402 ZM8.519,6.260 C8.511,6.260 8.502,6.260 8.494,6.260 C7.054,6.260 5.899,7.434 5.860,8.943 C5.820,10.479 7.018,11.760 8.487,11.760 C8.494,11.760 8.500,11.760 8.507,11.760 C9.928,11.749 11.111,10.503 11.116,9.011 C11.122,7.512 9.952,6.273 8.519,6.260 Z" transform="translate(0.5)" class="cls-1"/>
</svg>
