<?xml version="1.0" encoding="utf-8"?>
<!-- Generator: Adobe Illustrator 19.0.0, SVG Export Plug-In . SVG Version: 6.00 Build 0)  -->
<svg version="1.1" id="Layer_1" xmlns="http://www.w3.org/2000/svg" xmlns:xlink="http://www.w3.org/1999/xlink" x="0px" y="0px"
	 viewBox="0 0 24 24" style="enable-background:new 0 0 24 24;" xml:space="preserve">
<style type="text/css">
	.st0{fill:none;stroke:#E81F65;stroke-width:2.4;stroke-miterlimit:10;}
	.st1{fill:#E81F65;}
</style>
<circle id="XMLID_4_" class="st0" cx="12" cy="12" r="9"/>
<path id="XMLID_1_" class="st1" d="M11.1,9.1c0.4-0.9,0.5-1.3,0.8-1.4c0.1,0,0.2,0,0.2,0c0.3,0.1,0.5,0.5,0.8,1.4
	c0.2,0.5,0.3,0.8,0.5,0.9c0.1,0,0.1,0.1,0.2,0.1c0.2,0.1,0.5,0.2,1,0.2c0.9,0.1,1.4,0.1,1.5,0.4c0,0.1,0,0.1,0.1,0.2
	c0,0.3-0.3,0.6-1,1.2l-0.2,0.2c-0.3,0.3-0.5,0.4-0.6,0.6c-0.1,0.1-0.1,0.2-0.1,0.3c0,0.2,0,0.4,0.1,0.8l0,0.2
	c0.2,0.8,0.3,1.1,0.1,1.3c-0.1,0.2-0.3,0.3-0.5,0.3c-0.2,0-0.5-0.2-1.1-0.7c-0.4-0.3-0.6-0.5-0.8-0.5c-0.2-0.1-0.4-0.1-0.6,0
	c-0.2,0.1-0.4,0.2-0.8,0.5c-0.6,0.5-0.9,0.7-1.1,0.7c-0.2,0-0.4-0.1-0.5-0.3c-0.1-0.2,0-0.6,0.1-1.3l0-0.2c0.1-0.4,0.1-0.6,0.1-0.8
	c0-0.1-0.1-0.2-0.1-0.3c-0.1-0.2-0.3-0.3-0.6-0.6l-0.2-0.2c-0.7-0.6-1-0.9-1-1.2c0-0.1,0-0.1,0.1-0.2c0.1-0.3,0.6-0.3,1.5-0.4
	c0.6,0,0.8-0.1,1-0.2c0.1,0,0.1-0.1,0.2-0.1C10.7,9.9,10.9,9.6,11.1,9.1z"/>
</svg>
