<?xml version="1.0" encoding="utf-8"?>
<!-- Generator: Adobe Illustrator 19.0.0, SVG Export Plug-In . SVG Version: 6.00 Build 0)  -->
<svg version="1.1" id="Layer_1" xmlns="http://www.w3.org/2000/svg" xmlns:xlink="http://www.w3.org/1999/xlink" x="0px" y="0px"
	 viewBox="0 0 218 177" style="enable-background:new 0 0 218 177;" xml:space="preserve">
<path id="XMLID_4_" d="M126.5,9.2c0.7,1.4,0.9,3.2,1.3,6.8c0.7,6.8,1,10.3,2.5,12.1c1.8,2.4,4.8,3.6,7.7,3.2c2.3-0.3,5-2.5,10.3-6.8
	c2.8-2.3,4.2-3.4,5.7-3.9c1.9-0.6,4-0.5,5.8,0.3c1.5,0.6,2.7,1.9,5.3,4.5l7.4,7.4c2.6,2.6,3.9,3.9,4.5,5.3c0.8,1.9,0.9,3.9,0.3,5.8
	c-0.5,1.5-1.6,2.9-3.9,5.7c-4.4,5.3-6.5,8-6.8,10.3c-0.4,3,0.8,5.9,3.2,7.7c1.9,1.4,5.3,1.8,12.1,2.5c3.6,0.4,5.4,0.5,6.8,1.3
	c1.8,0.9,3.2,2.5,3.9,4.3c0.6,1.5,0.6,3.3,0.6,6.9v10.5c0,3.6,0,5.4-0.6,6.9c-0.7,1.9-2.1,3.4-3.9,4.3c-1.4,0.7-3.2,0.9-6.8,1.3l0,0
	c-6.8,0.7-10.3,1-12.1,2.5c-2.4,1.8-3.6,4.8-3.2,7.7c0.3,2.3,2.5,5,6.8,10.3c2.3,2.8,3.4,4.2,3.9,5.7c0.6,1.9,0.5,4-0.3,5.9
	c-0.6,1.5-1.9,2.7-4.5,5.3l-7.4,7.4c-2.6,2.6-3.9,3.9-5.3,4.5c-1.9,0.8-3.9,0.9-5.8,0.3c-1.5-0.5-2.9-1.6-5.7-3.9l0,0
	c-5.3-4.4-8-6.5-10.3-6.8c-3-0.4-5.9,0.8-7.7,3.2c-1.4,1.9-1.8,5.3-2.5,12.1c-0.4,3.6-0.5,5.4-1.3,6.8c-0.9,1.8-2.5,3.2-4.3,3.9
	c-1.5,0.6-3.3,0.6-6.9,0.6h-10.5c-3.6,0-5.4,0-6.9-0.6c-1.9-0.7-3.4-2.1-4.3-3.9c-0.7-1.4-0.9-3.2-1.3-6.8c-0.7-6.8-1-10.3-2.5-12.1
	c-1.8-2.4-4.8-3.6-7.7-3.2c-2.3,0.3-5,2.5-10.3,6.8h0c-2.8,2.3-4.2,3.5-5.7,3.9c-1.9,0.6-4,0.5-5.8-0.3c-1.5-0.6-2.7-1.9-5.3-4.5
	l-7.4-7.4c-2.6-2.6-3.9-3.9-4.5-5.3c-0.8-1.9-0.9-3.9-0.3-5.8c0.5-1.5,1.6-2.9,3.9-5.7c4.4-5.3,6.5-8,6.8-10.3
	c0.4-3-0.8-5.9-3.2-7.7c-1.9-1.4-5.3-1.8-12.1-2.5c-3.6-0.4-5.4-0.5-6.8-1.3c-1.8-0.9-3.2-2.5-3.9-4.3c-0.6-1.5-0.6-3.3-0.6-6.9
	V82.7c0-3.6,0-5.4,0.6-6.9c0.7-1.9,2.1-3.4,3.9-4.3c1.4-0.7,3.2-0.9,6.8-1.3l0,0h0c6.8-0.7,10.3-1,12.1-2.5c2.4-1.8,3.6-4.8,3.2-7.7
	c-0.3-2.3-2.5-5-6.8-10.3c-2.3-2.8-3.5-4.2-3.9-5.7c-0.6-1.9-0.5-4,0.3-5.8c0.6-1.5,1.9-2.7,4.5-5.3l7.4-7.4h0
	c2.6-2.6,3.9-3.9,5.3-4.5C62,20.1,64,20,66,20.6c1.5,0.5,2.9,1.6,5.7,3.9c5.3,4.4,8,6.5,10.3,6.8c3,0.4,5.9-0.8,7.7-3.2
	c1.4-1.9,1.8-5.3,2.5-12.1c0.4-3.6,0.5-5.4,1.3-6.8c0.9-1.8,2.5-3.2,4.3-3.9c1.5-0.6,3.3-0.6,6.9-0.6h10.5c3.6,0,5.4,0,6.9,0.6
	C124.1,6,125.6,7.4,126.5,9.2z M110,121.3c18.4,0,33.3-14.9,33.3-33.3c0-18.4-14.9-33.3-33.3-33.3c-18.4,0-33.3,14.9-33.3,33.3
	C76.7,106.4,91.6,121.3,110,121.3z"/>
</svg>
